<svg version="1.1" xmlns="http://www.w3.org/2000/svg" xmlns:xlink="http://www.w3.org/1999/xlink" width="478.43483" height="110.19987" viewBox="0,0,478.43483,110.19987"><g transform="translate(-0.78258,-124.90007)"><g data-paper-data="{&quot;isPaintingLayer&quot;:true}" fill-rule="nonzero" stroke="none" stroke-width="0.12659" stroke-linecap="butt" stroke-linejoin="miter" stroke-miterlimit="10" stroke-dasharray="" stroke-dashoffset="0" style="mix-blend-mode: normal"><path d="M89.64799,179.14469c0.06601,14.81783 0.1211,29.64669 0.18715,44.46454c0.01096,2.59807 -0.71555,4.92093 -2.46597,6.86949c-1.81646,2.03662 -4.09529,3.23658 -6.84748,3.26961c-4.92095,0.05505 -9.83086,0.07705 -14.75176,-0.01104c-5.24021,-0.09908 -9.88591,-4.88791 -10.04006,-10.09507c-0.2972,-10.01801 -0.1761,-20.02501 -0.2532,-30.04301c-0.01096,-1.39812 0.03313,-1.19996 -1.16692,-1.18895c-5.75761,0.03296 -11.51522,0.06601 -17.28379,0.11008c-1.00181,0.01104 -1.01282,0.01104 -1.00181,1.03483c0.02183,10.16112 0.05505,20.32224 0.08805,30.48336c0.01087,2.48799 -0.74861,4.68975 -2.37788,6.56125c-1.84948,2.1247 -4.20539,3.32466 -7.02363,3.35769c-4.98701,0.06601 -9.98497,0.08807 -14.97197,0.03296c-4.44755,-0.05505 -8.96115,-3.80905 -9.90792,-8.16853c-0.2752,-1.255 -0.23119,-2.55404 -0.2422,-3.84207c-0.09906,-8.25659 -0.19816,-16.5132 -0.28621,-24.75879c-0.17615,-17.12968 -0.3743,-34.25938 -0.4954,-51.40008c-0.02226,-3.84207 -0.1101,-7.70615 0.2752,-11.54823c0.08805,-0.91372 0.25321,-1.81645 0.49541,-2.69715c0.73761,-2.63111 2.43293,-4.37049 4.98695,-5.29524c1.81647,-0.66053 3.69899,-0.96877 5.60351,-1.03483c4.46956,-0.15412 8.95015,-0.3743 13.4197,-0.26421c1.28807,0.03296 2.56508,0.1321 3.82005,0.42934c3.61089,0.84768 6.25302,3.85308 6.29707,7.60708c0.04401,3.93014 0.08805,7.84927 0.11006,11.77941c0.03313,6.02182 0.03313,12.03262 0.04401,18.05444c0,0.14311 0.01087,0.29723 0,0.44034c-0.04401,0.46237 0.14311,0.67154 0.62751,0.63852c0.66051,-0.03296 1.32106,-0.01096 1.98157,-0.022c5.0971,-0.03305 10.19416,-0.0661 15.30222,-0.09908c0.1101,0 0.2202,0 0.3303,0c0.78161,-0.022 0.79261,-0.022 0.80361,-0.79263c0,-2.67514 -0.02183,-5.36129 -0.02183,-8.03642c-0.01087,-6.52822 -0.16515,-13.05644 0.1431,-19.58466c0.05505,-1.255 0.2202,-2.48798 0.50641,-3.69896c0.64951,-2.71917 2.26782,-4.6237 4.92095,-5.6255c1.77242,-0.66053 3.61088,-1.01281 5.48236,-1.06786c5.17415,-0.17614 10.34826,-0.06601 15.52242,-0.09907c1.61827,-0.01096 3.00538,0.62751 4.18335,1.69535c2.45493,2.21277 3.82004,4.89892 3.83104,8.30063c0.02183,14.75178 0.1211,29.49256 0.18715,44.24435h-0.01096z" fill="#cd2026"/><path d="M209.69893,141.95697c5.02001,0.19816 10.35927,0.52842 15.55542,1.95957c1.98157,0.53942 3.93015,1.22197 5.71357,2.24579c2.86228,1.64031 5.76862,3.21457 8.22359,5.46036c1.27701,1.17795 2.38888,2.47698 3.19253,4.04023c1.00181,1.92654 1.05686,3.83106 -0.03322,5.76861c-1.06781,1.89351 -2.34487,3.64391 -3.72094,5.30624c-1.19996,1.44216 -2.39993,2.8733 -3.66594,4.2494c-1.13391,1.24399 -2.52102,2.17974 -4.18335,2.51c-2.45497,0.49539 -4.57965,-0.33027 -6.29702,-2.08066c-1.94857,-2.0036 -4.21639,-3.48979 -6.72637,-4.66773c-5.58146,-2.6311 -13.97015,-0.64952 -17.6361,4.5026c-3.41274,4.79984 -5.42736,10.04003 -5.60347,15.92973c-0.07714,2.73018 0.35226,5.40532 1.46417,7.93734c1.08986,2.47698 2.82924,4.35948 5.1521,5.69155c2.34488,1.33207 4.86587,2.19076 7.519,2.69716c0.28624,0.05505 0.58346,0.06601 0.8807,0.05505c1.01282,-0.022 1.67337,-0.48438 1.98157,-1.44215c0.26425,-0.80365 0.35231,-1.64031 0.3413,-2.499c-0.01096,-0.60548 -0.26421,-0.95776 -0.86971,-1.06785c-0.9908,-0.17614 -1.86047,-0.62751 -2.74118,-1.08988c-1.72837,-0.90271 -2.64213,-2.3779 -3.01643,-4.22737c-0.37431,-1.89352 -0.29721,-3.79804 -0.01096,-5.69156c0.3413,-2.24579 0.77061,-4.48058 1.75041,-6.56124c1.13391,-2.41092 3.03844,-3.56685 5.66952,-3.6329c2.00362,-0.05505 3.94114,0.36329 5.88971,0.70457c5.11911,0.91372 10.19416,2.05864 15.28022,3.17053c4.93191,1.07886 8.09144,5.21817 7.43093,10.92072c-0.77061,6.6273 -1.66232,13.24358 -2.75223,19.82685c-0.24216,1.44215 -0.5064,2.8843 -0.97977,4.28242c-1.26601,3.73198 -3.73199,6.31905 -7.36488,7.82725c-2.96138,1.23299 -6.06586,1.93755 -9.22535,2.38891c-4.55766,0.67154 -9.1043,0.67154 -13.6399,0.19816c-5.62551,-0.59448 -11.15193,-1.65131 -16.46918,-3.68795c-3.98519,-1.51922 -7.54103,-3.743 -10.75558,-6.52822c-3.28063,-2.84027 -6.39611,-5.83466 -8.79604,-9.5006c-2.75218,-4.20536 -4.43654,-8.81805 -5.2512,-13.761c-0.57246,-3.45676 -0.75961,-6.92453 -0.60546,-10.41432c0.3743,-8.58686 2.52098,-16.6343 7.38688,-23.83405c3.12648,-4.63471 7.32083,-8.08046 12.12068,-10.82165c7.58508,-4.32646 15.78663,-6.17594 24.79183,-6.16493z" fill="#cd2026"/><path d="M312.68623,206.61164c0,3.55584 0.0661,7.12269 -0.01087,10.67854c-0.12109,5.32826 -2.75222,9.24739 -7.15572,12.03261c-2.78523,1.76141 -5.91171,2.69716 -9.1153,3.41273c-6.09887,1.35408 -12.26379,2.09167 -18.52781,2.15773c-9.09325,0.08807 -17.19574,-2.78522 -24.61568,-7.86028c-4.20534,-2.8843 -7.84924,-6.37409 -11.04182,-10.34827c-0.34126,-0.42934 -0.56146,-0.81465 -0.40731,-1.38711c1.07887,-4.12831 1.57427,-8.34467 2.21278,-12.55003c0.61646,-4.06225 1.08986,-8.1355 1.12286,-12.25279c0.01096,-1.02382 -0.02183,-2.05864 -0.01087,-3.08247c0.02183,-1.46417 -0.52841,-2.71917 -1.43112,-3.83106c-1.37611,-1.69535 -3.17053,-2.81825 -5.0971,-3.754c-1.01282,-0.4954 -1.01282,-0.48439 -0.67151,-1.60728c0.91372,-2.9944 2.26783,-5.80164 3.93014,-8.44376c2.42193,-3.87509 5.35026,-7.34286 8.6529,-10.50239c3.20359,-3.06045 7.06763,-4.93194 11.20698,-6.30804c4.41451,-1.46417 8.97215,-2.1247 13.59585,-2.43294c3.776,-0.25321 7.55204,-0.16513 11.32804,0.022c7.02362,0.35228 13.43075,2.47698 19.19936,6.51721c1.26601,0.89171 2.42192,1.89352 3.34668,3.14851c1.15591,1.58527 1.47516,3.2476 0.60546,5.05304c-0.39631,0.82566 -0.78161,1.66233 -1.23296,2.45496c-1.55227,2.67514 -3.33569,5.17413 -5.37232,7.49699c-0.62751,0.71557 -1.33206,1.36509 -2.14672,1.88251c-2.43293,1.56324 -4.98696,1.84947 -7.61809,0.55043c-1.80543,-0.89171 -3.61089,-1.80545 -5.33927,-2.81825c-2.09167,-1.23298 -4.31544,-1.56325 -6.67132,-1.36509c-2.27882,0.18715 -4.48059,0.71558 -6.60527,1.57426c-2.15773,0.86969 -3.77604,2.39992 -5.02001,4.30444c-4.43654,6.83647 -5.74661,14.17934 -3.35769,22.05063c0.96877,3.19254 3.09349,5.54842 5.68052,7.49698c1.12291,0.84768 2.47697,1.23299 3.83109,1.59628c2.13568,0.57246 4.30445,0.8917 6.51723,0.83667c1.68432,-0.04401 2.38888,-0.75961 2.44393,-2.43295c0.02183,-0.55043 0.03313,-1.10088 -0.19816,-1.61829c-0.2752,-0.6165 -0.67155,-0.96877 -1.38711,-1.05684c-2.54303,-0.31927 -4.3925,-1.69535 -5.65851,-3.88611c-0.62751,-1.08987 -0.97981,-2.28983 -1.17797,-3.52282c-0.36325,-2.28983 -0.53941,-4.57966 -0.20915,-6.89151c0.69356,-4.90992 4.7668,-7.14471 8.21254,-7.12269c5.64751,0.022 11.29502,-0.08807 16.94254,0.31925c1.28806,0.08807 2.53203,0.38531 3.76503,0.75961c4.79981,1.44216 7.30984,6.30804 7.26579,9.98498c-0.04401,3.58887 -0.01087,7.18875 -0.01087,10.78862c0.06601,-0.04401 0.14311,-0.04401 0.2312,-0.04401z" fill="#cd2026"/><path d="M162.79045,186.19032c0,6.35207 -0.03322,12.69314 0.01096,19.04521c0.07705,11.61428 -5.41636,19.88189 -15.33527,25.43033c-4.4035,2.46597 -9.20335,3.73199 -14.22336,4.21637c-8.14654,0.78163 -15.92973,-0.53943 -23.32766,-3.99619c-5.03101,-2.35588 -9.14831,-5.76861 -12.01058,-10.62349c-1.24402,-2.10268 -1.73938,-4.40351 -2.31183,-6.71536c-0.97981,-3.95215 -1.02386,-7.99239 -1.06786,-12.02161c-0.07714,-8.1465 -0.35231,-16.29301 -0.28625,-24.43952c0.03322,-3.85308 -0.23116,-7.70617 -0.17615,-11.55924c0.03322,-2.01461 0.17615,-4.02922 0.6165,-6.01081c0.89171,-3.94115 3.36869,-6.31905 7.29884,-6.95756c3.95214,-0.63851 7.94834,-0.80364 11.95558,-0.29724c0.91372,0.11008 1.79443,0.35228 2.66413,0.66053c3.06044,1.06785 4.74476,3.30264 5.39431,6.39611c0.16511,0.79263 0.22016,1.59627 0.22016,2.41092c0.02183,10.64551 0.05505,21.28001 0.0991,31.92551c0.01096,3.48979 0.05505,6.96857 0.0661,10.45836c0.01096,1.18894 0.2642,2.32285 0.73756,3.41273c1.26601,2.91733 3.75399,4.05124 6.68237,3.66593c3.25859,-0.42934 5.18511,-2.74119 5.20716,-6.16493c0.01096,-2.31184 -0.03322,-4.62369 -0.07714,-6.93554c-0.09905,-6.35207 -0.22015,-12.69314 -0.2862,-19.04522c-0.05505,-5.03102 -0.19816,-10.05103 -0.1101,-15.08205c0.03322,-1.65132 0.2312,-3.29163 0.66055,-4.88791c1.00177,-3.69896 3.42374,-5.91172 7.16673,-6.57225c3.41269,-0.60549 6.86948,-0.57246 10.31521,-0.45136c1.47517,0.05505 2.89533,0.3853 4.30445,0.84767c1.54122,0.5064 2.77423,1.45316 3.8641,2.63111c1.10086,1.18894 1.26601,2.67513 1.45316,4.17233c0.57246,4.74479 0.70456,9.5006 0.52841,14.27842c-0.16515,4.06225 -0.04409,8.1355 -0.03322,12.20876c-0.01096,0 0,0 0,0z" fill="#cd2026"/><path d="M432.13168,234.12263c-7.22177,0.08807 -14.02521,-1.53023 -20.37729,-4.98699c-1.83847,-1.00181 -3.52281,-2.2458 -5.15211,-3.55584c-2.08066,-1.68434 -2.51,-3.85308 -2.01461,-6.33006c0.29724,-1.48619 0.97979,-2.82925 1.60728,-4.19435c0.97979,-2.13571 2.03663,-4.22738 3.46778,-6.10988c1.81645,-2.38891 3.34667,-3.34668 7.22177,-2.32286c1.39812,0.3743 2.6311,1.10088 3.78703,1.94856c2.64211,1.94855 5.47137,3.54482 8.58686,4.61268c1.4972,0.51741 3.02742,0.85869 4.6347,0.7486c2.69716,-0.18715 4.43654,-2.41092 3.82006,-4.92094c-0.22018,-0.91372 -0.75961,-1.66232 -1.42014,-2.31184c-1.14491,-1.11189 -2.47698,-1.94856 -3.8861,-2.66413c-2.97239,-1.50821 -5.94475,-3.01641 -8.95016,-4.44755c-3.48979,-1.65132 -6.77041,-3.65492 -9.95195,-5.81265c-2.33387,-1.58526 -4.07326,-3.77602 -5.68054,-6.07686c-1.68435,-2.39991 -2.42194,-5.06404 -2.45496,-7.95936c-0.01104,-1.35408 0,-2.71918 -0.022,-4.07326c-0.09908,-5.22918 1.46417,-9.94095 4.31545,-14.28942c3.77602,-5.74659 9.11529,-9.09327 15.78661,-10.41433c5.39432,-1.06785 10.85468,-1.28802 16.31504,-1.03483c3.85308,0.17614 7.64011,0.8697 11.25099,2.33387c1.36509,0.55043 2.67514,1.19996 3.88611,2.03663c1.82746,1.27701 2.91733,3.01641 3.07145,5.22918c0.27522,3.73198 0.34128,7.47497 -0.01104,11.20695c-0.18715,1.94856 -1.15592,3.34668 -3.02742,4.09528c-0.8807,0.35228 -1.70636,0.33027 -2.55404,-0.04401c-0.68255,-0.29725 -1.31005,-0.67154 -1.83847,-1.18895c-2.70817,-2.60909 -6.04384,-3.93014 -9.59968,-4.84387c-1.81645,-0.47337 -3.64391,-0.83666 -5.53742,-0.63851c-1.11189,0.12109 -2.16874,0.45136 -3.06045,1.1229c-1.90452,1.44215 -2.21277,2.30083 -1.77242,4.65672c0.31926,1.70636 1.38711,2.96137 2.7522,3.97417c0.85869,0.63852 1.82747,1.07886 2.79623,1.51921c3.56685,1.6183 7.16673,3.15953 10.68955,4.8769c3.28062,1.60728 6.36308,3.47878 8.78502,6.29702c2.71918,3.17054 4.76681,6.68235 5.54844,10.83267c0.61649,3.29163 0.42933,6.57224 -0.19816,9.84186c-0.23119,1.22197 -0.56145,2.42193 -0.90272,3.62189c-1.70636,5.96677 -5.48238,10.3813 -10.45836,13.84908c-4.74479,3.30264 -10.06204,5.009 -15.84165,5.29523c-0.62751,0.03305 -1.24399,0.09908 -1.8715,0.1211c-0.57246,0.022 -1.15593,0 -1.73939,0z" fill="#cd2026"/><path d="M350.24825,192.03599c-0.17614,-8.61989 -0.42935,-17.23978 -0.6055,-25.85967c-0.04409,-2.31185 -0.03322,-4.61269 0.20916,-6.92454c0.35231,-3.40172 2.09167,-5.70255 5.2292,-6.99058c1.65132,-0.67154 3.34668,-1.05685 5.13011,-1.07886c5.86767,-0.0661 11.73538,-0.14312 17.61405,-0.19816c3.55586,-0.03296 7.12271,-0.1321 10.67854,-0.01096c2.26781,0.07705 4.53563,0.25321 6.74839,0.84768c0.31926,0.08807 0.63851,0.17614 0.94676,0.27522c2.15772,0.70456 3.54482,2.05864 3.97417,4.39251c0.29724,1.6403 0.41833,3.26961 0.44035,4.92093c0.022,1.82746 -0.07705,3.66593 -0.28623,5.49339c-0.22018,1.84948 -1.19996,3.10448 -2.86229,3.87509c-1.11189,0.51742 -2.30083,0.71558 -3.52281,0.71558c-4.65672,0 -9.32445,0.022 -13.98117,0.04401c-0.73761,0 -1.46417,0 -2.20177,0c-1.06786,0 -1.07886,0.01104 -1.07886,1.07887c0,2.42193 0.01087,4.84387 0.01087,7.26581c0,1.1339 -0.05496,1.02382 0.9908,1.03483c2.93936,0.01104 5.86769,0.022 8.80705,0.03296c0.99079,0.01104 1.98158,0.11008 2.93935,0.3853c2.44395,0.71558 3.91913,2.46597 4.08426,4.998c0.15413,2.3779 0.2422,4.76681 0.34128,7.14471c0.04401,1.22197 -0.1321,2.41092 -0.58347,3.55583c-1.13391,2.8733 -3.53383,4.53563 -6.6273,4.54664c-2.86228,0.01104 -5.72457,0 -8.58685,0c-0.2202,0 -0.44036,0.022 -0.66051,0c-0.53946,-0.0661 -0.69356,0.16513 -0.68256,0.69356c0.05505,1.61829 0.05505,3.22557 0.09906,4.84387c0.03322,1.28803 0.07714,2.56505 0.11009,3.85308c0.03313,0.93575 0.02183,0.93575 1.00181,0.93575c4.81084,0.022 9.61067,0.04401 14.42152,0.06601c1.43114,0 2.85127,0.16513 4.2604,0.46236c2.67514,0.57246 4.55764,2.32286 4.92093,5.08607c0.40733,3.02742 0.53943,6.06585 -0.09907,9.08226c-0.71558,3.44576 -2.31185,5.09707 -6.24199,5.83467c-1.34307,0.2532 -2.70817,0.20917 -4.06225,0.20917c-9.28042,0.01104 -18.56085,0.022 -27.85226,0.022c-1.79442,0 -3.58888,-0.08807 -5.36131,-0.40733c-0.44031,-0.07705 -0.86967,-0.17614 -1.25497,-0.39632c-3.75399,-2.09167 -6.30807,-5.009 -6.34107,-9.55564c-0.06601,-7.8933 0.07705,-15.77561 -0.05505,-23.66891c-0.04409,-2.21277 -0.01096,-4.41452 -0.01096,-6.60528z" fill="#cd2026"/><path d="M344.43559,191.47454c0.05505,9.68774 0.0991,19.36448 0.15415,29.05222c0.01096,1.57426 0,3.14851 -0.41836,4.68975c-0.72656,2.68614 -2.37792,4.67873 -4.6567,6.17593c-1.32106,0.8697 -2.86233,1.1229 -4.40354,1.22198c-3.07144,0.18715 -6.15392,0.14311 -9.22536,-0.15412c-3.67694,-0.35228 -6.09887,-2.46597 -7.99239,-5.37229c-0.75961,-1.16694 -0.78161,-2.58708 -0.81466,-3.94115c-0.1101,-4.79984 -0.18715,-9.61069 -0.26421,-14.41052c-0.18715,-12.28582 -0.3633,-24.57164 -0.55045,-36.85745c-0.05505,-3.48979 0.01087,-6.96857 0.16515,-10.44735c0.0661,-1.35408 0.20916,-2.69715 0.59446,-4.01821c0.75961,-2.60909 2.37793,-4.41452 4.94296,-5.33927c1.17796,-0.42934 2.38892,-0.68254 3.6439,-0.73759c3.69898,-0.15412 7.40893,-0.1321 11.10791,0.05505c3.34664,0.16513 5.47136,2.03662 6.75938,4.97598c0.64951,1.46417 0.79266,3.03843 0.79266,4.62369c0,10.16112 0,20.32224 0,30.48336c0.06601,0 0.11006,0 0.16511,0z" fill="#cd2026"/><path d="M479.21663,155.83933c0.05505,3.88611 -2.79682,6.8258 -6.62787,6.83681c-3.8751,0.022 -6.68141,-2.81834 -6.69242,-6.74848c-0.01104,-3.89711 2.83928,-6.80453 6.67034,-6.80453c3.78703,0 6.60592,2.84112 6.64996,6.71621zM470.34323,150.78603c-2.04763,1.0018 -2.91673,2.77485 -3.0048,5.18578c0.03302,0.28623 0.04354,0.7708 0.1206,1.23317c0.39632,2.30084 2.15693,4.0061 4.40273,4.29233c2.2458,0.28623 4.35962,-0.84763 5.30638,-2.90628c0.81463,-1.76141 0.82573,-3.55516 0.02209,-5.31657c-0.90823,-1.98158 -2.84378,-3.10232 -4.85116,-3.0048c-0.66913,0.03252 -1.34632,0.19987 -1.99584,0.51637z" fill="#cd2127"/><path d="M473.59092,152.31646c1.59628,0.15412 2.41108,1.59574 1.8056,3.02688c-0.29724,0.72658 -0.95855,0.95789 -1.72917,1.21109c0.67154,1.05685 1.28851,2.03696 1.91601,3.03877c-1.17793,0.33026 -1.17708,0.33022 -1.74954,-0.59451c-0.38531,-0.6275 -0.77137,-1.24352 -1.13466,-1.88203c-0.19816,-0.35228 -0.44033,-0.54015 -0.86968,-0.54015c-0.47337,0 -0.66068,0.16528 -0.63866,0.63866c0.03296,0.66053 -0.01181,1.32172 0.01019,1.98225c0.01104,0.40733 -0.09899,0.60551 -0.55035,0.5945c-0.40732,-0.01104 -0.71422,-0.02197 -0.70321,-0.57242c0.022,-1.05685 0.01019,-2.12461 0.01019,-3.18145c0,-1.05685 0.01104,-2.1263 0,-3.18315c-0.01096,-0.41834 0.13288,-0.60551 0.56223,-0.5945c1.02382,0.022 2.05823,-0.04301 3.07104,0.05605zM471.23499,154.25454c0.04404,0.44035 -0.34182,1.12146 0.39577,1.25356c0.6275,0.11009 1.28855,0.08952 1.93808,-0.08663c0.53943,-0.15412 0.75927,-0.5179 0.75927,-1.04632c-0.011,-0.53942 -0.26325,-0.8581 -0.83571,-0.96819c-0.31926,-0.0661 -0.65006,-0.05521 -0.77116,-0.06625c-0.49539,0 -0.78218,-0.01104 -1.0684,0c-0.66053,0.05504 -0.45081,0.58358 -0.41785,0.91384z" fill="#ce2228"/></g></g></svg>